# xmcd
#
# Track frame offsets: 
#        150
#        16362
#        32019
#        53670
#        63485
#        87892
#        103602
#        125937
#        144857
#        159200
#
# Disc length: 2356 seconds
#
# Revision: 0
# Processed by: cddbd v1.5.2PL0 Copyright (c) Steve Scherf et al.
# Submitted via: ExactAudioCopy v0.99pb3
#
DISCID=7b09320a
DTITLE=Some Velvet Sidewalk - Generate!
DYEAR=1997
DGENRE=Shoegaze
TTITLE0=Generate!
TTITLE1=Consequence
TTITLE2=Circle
TTITLE3=Altocumulus
TTITLE4=Split the scene
TTITLE5=Refuse
TTITLE6=Valley of the clock
TTITLE7=Ghost travel
TTITLE8=Anchor
TTITLE9=Day follows night
EXTD=
EXTT0=
EXTT1=
EXTT2=
EXTT3=
EXTT4=
EXTT5=
EXTT6=
EXTT7=
EXTT8=
EXTT9=
PLAYORDER=
